<svg width="668" height="562" viewBox="0 0 668 562" fill="none" xmlns="http://www.w3.org/2000/svg">
<path d="M408.625 164.42H377.384V179.596H408.625V164.42Z" fill="#EBEBEB"/>
<path d="M391.196 183.56H359.955V198.735H391.196V183.56Z" fill="#EBEBEB"/>
<path d="M426.051 183.56H394.81V198.735H426.051V183.56Z" fill="#EBEBEB"/>
<path d="M538.212 308.199H506.971V323.375H538.212V308.199Z" fill="#EBEBEB"/>
<path d="M538.212 20.6021H506.971V35.778H538.212V20.6021Z" fill="#EBEBEB"/>
<path d="M555.641 39.738H524.4V54.9139H555.641V39.738Z" fill="#EBEBEB"/>
<path d="M505.511 111.873H296.064V122.432H505.511V111.873Z" fill="#EBEBEB"/>
<path d="M316.993 122.435H307.806V157.358H316.993V122.435Z" fill="#EBEBEB"/>
<path d="M316.993 122.435H307.806V133.231H316.993V122.435Z" fill="#DBDBDB"/>
<path d="M493.776 122.435H484.588V157.358H493.776V122.435Z" fill="#EBEBEB"/>
<path d="M493.776 122.435H484.588V133.231H493.776V122.435Z" fill="#DBDBDB"/>
<path d="M349.9 111.877V44.5811H335.16V111.877H349.9Z" fill="#C7C7C7"/>
<path d="M349.9 48.375V40.9813H335.16V48.375H349.9Z" fill="#DBDBDB"/>
<path d="M349.9 60.5978V57.853H335.16V60.5978H349.9Z" fill="#DBDBDB"/>
<path d="M351.738 103.049V95.655H335.16V103.049H351.738Z" fill="#DBDBDB"/>
<path d="M360.203 111.877V33.3758H349.9V111.877H360.203Z" fill="#DBDBDB"/>
<path d="M358.099 70.9481V40.7552H351.916V70.9481H358.099Z" fill="#EBEBEB"/>
<path d="M433.498 103.467L384.933 48.283L377.691 56.7072L426.256 111.891L433.498 103.467Z" fill="#C7C7C7"/>
<path d="M420.67 92.1736L401.997 70.948L397.651 76.0015L416.324 97.2271L420.67 92.1736Z" fill="#DBDBDB"/>
<path d="M377.694 111.887V52.2609H360.197V111.887H377.694Z" fill="#A6A6A6"/>
<path d="M377.694 105.567V100.011H360.197V105.567H377.694Z" fill="#C7C7C7"/>
<path d="M377.694 96.3615V94.2067H360.197V96.3615H377.694Z" fill="#C7C7C7"/>
<path d="M335.16 111.891V55.8534H323.075V111.891H335.16Z" fill="#A6A6A6"/>
<path d="M335.16 105.949V100.728H323.075V105.949H335.16Z" fill="#C7C7C7"/>
<path d="M335.16 72.6261V67.405H323.075V72.6261H335.16Z" fill="#C7C7C7"/>
<path d="M335.16 78.2286V76.2045H323.075V78.2286H335.16Z" fill="#C7C7C7"/>
<path d="M483.491 85.7637L482.173 89.7626L481.371 92.2001L480.053 96.2131L474.906 111.884H447.075L441.916 96.2131L440.598 92.2001L439.796 89.7626L438.477 85.7637L448.747 68.5742L443.425 57.2311H478.572L473.225 68.5742L483.491 85.7637Z" fill="#DBDBDB"/>
<path d="M483.491 85.7638L482.173 89.7627H439.796L438.477 85.7638H483.491Z" fill="#A6A6A6"/>
<path d="M481.356 92.1966L480.037 96.2096H441.916L440.598 92.1966H481.356Z" fill="#A6A6A6"/>
<path d="M238.836 0H81.9012V276.636H238.836V0Z" fill="#EBEBEB"/>
<path d="M156.721 11.0818H90.4529V134.128H156.721V11.0818Z" fill="white"/>
<path d="M230.282 11.0818H164.013V134.128H230.282V11.0818Z" fill="white"/>
<path d="M156.721 142.511H90.4529V265.558H156.721V142.511Z" fill="white"/>
<path d="M230.282 142.511H164.013V265.558H230.282V142.511Z" fill="white"/>
<path d="M119.07 0H81.9012V395.775H119.07V0Z" fill="#DBDBDB"/>
<path d="M112.024 18.8181L112.31 61.6117L112.414 104.402L112.611 189.985L112.414 275.569L112.31 318.362L112.021 361.156L111.732 318.362L111.625 275.572L111.428 189.989L111.625 104.402L111.729 61.6082L112.024 18.8181Z" fill="#EBEBEB"/>
<path d="M94.9545 28.741L95.2403 66.9493L95.4063 105.158L95.5445 181.578L95.4093 257.998L95.2434 296.195L94.9545 334.404L94.6657 296.195L94.4998 257.987L94.3646 181.567L94.5028 105.147L94.6688 66.9387L94.9545 28.741Z" fill="#EBEBEB"/>
<path d="M103.5 37.7597L103.786 82.4997L103.89 127.24L104.087 216.72L103.89 306.203L103.78 350.957L103.5 395.687L103.193 350.957L103.088 306.217L102.901 216.72L103.098 127.24L103.193 82.4997L103.5 37.7597Z" fill="#EBEBEB"/>
<path d="M88.6092 21.0719L88.8949 67.8997L88.9994 114.727L89.1961 208.383L88.9994 302.038L88.8949 348.866L88.6061 395.694L88.3172 348.866L88.2128 302.038L88.0161 208.383L88.2128 114.727L88.3172 67.8997L88.6092 21.0719Z" fill="#EBEBEB"/>
<path d="M201.664 395.775H238.833L238.833 3.05176e-05H201.664L201.664 395.775Z" fill="#DBDBDB"/>
<path d="M208.713 18.8181L208.999 61.6117L209.104 104.402L209.3 189.985L209.104 275.569L208.999 318.362L208.71 361.156L208.422 318.362L208.317 275.569L208.12 189.985L208.317 104.402L208.422 61.6082L208.713 18.8181Z" fill="#EBEBEB"/>
<path d="M225.78 28.741L226.066 66.9493L226.232 105.158L226.37 181.578L226.235 257.998L226.069 296.206L225.78 334.414L225.491 296.206L225.322 258.001L225.187 181.581L225.322 105.161L225.488 66.9528L225.78 28.741Z" fill="#EBEBEB"/>
<path d="M217.247 37.7597L217.532 82.4997L217.637 127.24L217.834 216.72L217.637 306.203L217.535 350.957L217.247 395.697L216.958 350.957L216.853 306.217L216.657 216.734L216.853 127.254L216.958 82.5138L217.247 37.7597Z" fill="#EBEBEB"/>
<path d="M232.128 21.0719L232.414 67.8997L232.519 114.727L232.715 208.383L232.519 302.038L232.414 348.866L232.125 395.694L231.836 348.866L231.732 302.038L231.535 208.383L231.732 114.727L231.836 67.8997L232.128 21.0719Z" fill="#EBEBEB"/>
<path d="M1 396.079H667" stroke="#263238" stroke-linecap="round" stroke-linejoin="round"/>
<path d="M327.536 538.205C484.868 538.205 612.411 519.95 612.411 497.432C612.411 474.914 484.868 456.659 327.536 456.659C170.204 456.659 42.6613 474.914 42.6613 497.432C42.6613 519.95 170.204 538.205 327.536 538.205Z" fill="#EBEBEB"/>
<path d="M473.243 422.004H193.617L281.416 186.421H561.043L473.243 422.004Z" fill="#263238"/>
<path d="M283.484 191.443H559.168L473.243 422.003H198.604L283.484 191.443Z" fill="#EBEBEB"/>
<path d="M283.484 191.444C284.603 213.657 282.388 235.925 276.936 257.274C267.939 291.105 223.362 358.849 214.69 404.543L198.604 422.001H473.243L559.168 191.441L283.484 191.444Z" fill="#DBDBDB"/>
<path d="M283.484 191.444C283.229 194.86 280.332 240.105 268.805 269.334C255.955 301.922 224.95 354.062 213.464 401.854" stroke="#DBDBDB" stroke-miterlimit="10"/>
<path d="M280.676 205.126C277.629 228.749 271.53 251.717 262.58 273.269C247.83 308.549 222.427 352.957 210.603 408.997" stroke="#DBDBDB" stroke-miterlimit="10"/>
<path d="M370.722 435.075H639.255L548.361 191.444H283.484C283.484 191.444 282.443 228.328 300.016 281.698C316.569 331.977 347.19 362.201 370.722 435.075Z" fill="white"/>
<path d="M369.145 435.075C346.692 370.87 313.964 337.145 297.131 290.741C284.071 254.737 283.484 191.444 283.484 191.444" stroke="white" stroke-width="2" stroke-miterlimit="10"/>
<path d="M286.115 198.477C286.115 198.477 292.475 257.574 316.308 306.722C340.141 355.871 351.867 374.262 364.244 407.885" stroke="#EBEBEB" stroke-miterlimit="10"/>
<path d="M376.253 440.098H655.879L561.237 186.417H281.61L376.253 440.098Z" fill="#744FC2"/>
<path d="M556.735 440.098H618.256L523.613 186.417H462.092L556.735 440.098Z" fill="#6E3CBC"/>
<path d="M405.331 440.098H427.609L332.966 186.417H310.688L405.331 440.098Z" fill="#6E3CBC"/>
<path d="M283.484 191.444H563.111L566.079 183.404H278.509L283.484 191.444Z" fill="#6E3CBC"/>
<path d="M160.117 523.633L53.1611 491.257L3.40289 521.919L108.023 562L160.117 523.633Z" fill="#8DA8DF"/>
<path d="M153.483 523.078L105.786 558.326L7.7356 520.853L55.8437 491.479C55.8437 491.479 85.186 495.92 86.5534 496.425C87.9209 496.93 100.86 503.091 100.86 503.091C100.86 503.091 119.015 506.722 120.247 507.196C121.479 507.669 153.483 523.078 153.483 523.078Z" fill="white"/>
<path d="M100.86 503.074C97.1034 506.18 93.3248 509.249 89.5248 512.28L78.0847 521.312L66.5554 530.19C62.7001 533.131 58.8212 536.03 54.9187 538.887C58.6737 535.781 62.4522 532.712 66.2543 529.681L77.6944 520.652L89.2267 511.778C93.08 508.834 96.9579 505.933 100.86 503.074Z" fill="#DBDBDB"/>
<path d="M142.98 522.754C139.497 521.183 136.027 519.577 132.569 517.935L122.213 512.99L119.629 511.743C119.199 511.545 118.76 511.329 118.348 511.167C117.936 511.004 117.444 510.916 116.993 510.789L111.539 509.316C107.906 508.32 104.281 507.274 100.661 506.179C104.338 506.98 108.009 507.826 111.674 508.719L117.165 510.086C117.623 510.209 118.087 510.298 118.538 510.439C118.99 510.58 119.436 510.824 119.878 511.022L122.478 512.237C125.919 513.933 129.358 515.618 132.775 517.373C136.192 519.129 139.596 520.913 142.98 522.754Z" fill="#DBDBDB"/>
<path d="M139.658 525.007C136.175 523.436 132.705 521.83 129.247 520.189L118.892 515.243L116.307 513.996C115.877 513.798 115.438 513.583 115.029 513.42C114.62 513.258 114.123 513.17 113.674 513.042L108.22 511.569C104.588 510.573 100.962 509.527 97.342 508.432C101.019 509.233 104.69 510.08 108.355 510.972L113.846 512.339C114.304 512.463 114.768 512.551 115.22 512.693C115.671 512.834 116.117 513.078 116.559 513.276L119.159 514.494C122.601 516.186 126.039 517.875 129.456 519.627C132.873 521.379 136.275 523.167 139.658 525.007Z" fill="#DBDBDB"/>
<path d="M136.333 527.261C132.928 525.725 129.536 524.156 126.156 522.552L116.034 517.705L113.511 516.486C112.696 516.052 111.85 515.698 110.982 515.427L105.657 513.961C102.101 512.986 98.5517 511.973 95.0098 510.923C98.607 511.679 102.192 512.489 105.765 513.353C107.559 513.77 109.338 514.24 111.127 514.716C112.027 514.986 112.907 515.34 113.757 515.776L116.295 516.974C119.654 518.634 123.019 520.28 126.356 521.997C129.693 523.714 133.021 525.459 136.333 527.261Z" fill="#DBDBDB"/>
<path d="M133.011 529.508C129.656 527.993 126.313 526.447 122.982 524.869L113.007 520.09C111.351 519.323 109.679 518.412 108.039 517.783L102.796 516.331C99.2934 515.363 95.7965 514.361 92.3058 513.325C95.8539 514.064 99.3907 514.86 102.916 515.713C104.683 516.133 106.435 516.586 108.201 517.069C109.984 517.734 111.582 518.571 113.272 519.359C116.581 520.998 119.9 522.616 123.185 524.304C126.469 525.993 129.751 527.738 133.011 529.508Z" fill="#DBDBDB"/>
<path d="M129.687 531.765C126.343 530.255 123.011 528.714 119.691 527.141L109.75 522.379C108.1 521.609 106.431 520.718 104.803 520.068C103.088 519.553 101.321 519.115 99.5791 518.616C96.0965 517.653 92.614 516.654 89.1315 515.617C92.6673 516.35 96.1928 517.142 99.7081 517.995C101.469 518.419 103.211 518.864 104.978 519.351C106.745 520.04 108.358 520.856 110.024 521.647C113.321 523.279 116.627 524.894 119.903 526.593C123.178 528.292 126.439 529.998 129.687 531.765Z" fill="#DBDBDB"/>
<path d="M126.365 534.011C123.032 532.507 119.711 530.976 116.403 529.419L106.493 524.671C104.849 523.901 103.183 523.025 101.576 522.354C99.871 521.838 98.1072 521.397 96.3741 520.906C92.8916 519.942 89.4183 518.945 85.9542 517.914C89.4777 518.644 92.992 519.433 96.497 520.28C98.2516 520.704 99.9878 521.142 101.752 521.637C103.503 522.343 105.11 523.145 106.773 523.94C110.06 525.572 113.358 527.176 116.621 528.864C119.884 530.553 123.129 532.249 126.365 534.011Z" fill="#DBDBDB"/>
<path d="M123.04 536.266C119.749 534.778 116.467 533.273 113.207 531.719L103.429 527.035C101.801 526.276 100.169 525.428 98.5558 524.721C96.9211 524.152 95.1481 523.75 93.4488 523.259C90.0164 522.301 86.5872 521.326 83.1702 520.295C86.6527 521.001 90.1209 521.777 93.5748 522.623C95.3109 523.064 97.0132 523.439 98.7647 524.015C100.455 524.742 102.065 525.512 103.697 526.311C106.942 527.922 110.196 529.49 113.413 531.175C116.63 532.86 119.844 534.528 123.04 536.266Z" fill="#DBDBDB"/>
<path d="M119.718 538.516C116.427 537.029 113.146 535.524 109.885 533.969L100.104 529.296C98.4759 528.536 96.8442 527.688 95.231 526.982C93.5932 526.413 91.8232 526.01 90.124 525.519C86.6916 524.562 83.2623 523.587 79.8423 522.556C83.3248 523.262 86.793 524.038 90.2469 524.883C91.983 525.325 93.6854 525.7 95.4369 526.272C97.13 527 98.7371 527.77 100.372 528.568C103.617 530.179 106.868 531.747 110.088 533.432C113.308 535.117 116.523 536.778 119.718 538.516Z" fill="#DBDBDB"/>
<path d="M116.956 541.101C113.622 539.582 110.294 538.046 106.985 536.46L97.0686 531.684L92.1183 529.306C90.4927 528.684 88.6736 528.303 86.9528 527.798C83.4683 526.826 79.9868 525.837 76.5052 524.792C80.0369 525.517 83.5574 526.305 87.0665 527.155C88.8273 527.621 90.5542 527.96 92.3364 528.607C94.0234 529.363 95.6766 530.14 97.3236 530.959C100.612 532.602 103.912 534.213 107.178 535.905C110.445 537.597 113.717 539.335 116.956 541.101Z" fill="#DBDBDB"/>
<path d="M113.628 543.436C110.303 541.91 106.988 540.37 103.691 538.777L93.8053 533.983L88.8703 531.595C87.2602 530.952 85.438 530.585 83.7234 530.076C80.248 529.105 76.7757 528.119 73.3127 527.074C76.8362 527.794 80.3484 528.581 83.8493 529.433C85.6039 529.907 87.3278 530.225 89.1069 530.896C90.7786 531.659 92.4317 532.433 94.0726 533.259C97.3513 534.909 100.642 536.523 103.906 538.233C107.169 539.943 110.399 541.663 113.628 543.436Z" fill="#DBDBDB"/>
<path d="M110.288 545.955C107.071 544.44 103.853 542.914 100.661 541.335C97.468 539.756 94.2815 538.155 91.0827 536.583L86.3014 534.21C85.5269 533.797 84.7147 533.485 83.88 533.28L81.348 532.574C77.9679 531.624 74.5878 530.663 71.2322 529.631C74.6595 530.321 78.0754 531.081 81.4801 531.91L84.0275 532.567C84.4515 532.687 84.8756 532.782 85.3119 532.941C85.7483 533.1 86.1477 533.295 86.541 533.496C88.1553 534.259 89.7552 535.047 91.3408 535.859C94.515 537.495 97.7046 539.092 100.867 540.805C104.028 542.518 107.16 544.203 110.288 545.955Z" fill="#DBDBDB"/>
<path d="M106.975 548.039C103.7 546.669 100.43 545.288 97.1792 543.85C93.9282 542.412 90.6833 540.95 87.4322 539.522C85.8098 538.816 84.175 538.039 82.5741 537.403L77.5623 535.707C74.2314 534.538 70.9035 533.34 67.5972 532.072C70.9773 533.012 74.3574 534.022 77.7375 535.061L82.7708 536.675C84.4731 537.318 86.0648 538.06 87.6873 538.795C90.9199 540.289 94.1648 541.744 97.3728 543.309C100.581 544.874 103.783 546.436 106.975 548.039Z" fill="#DBDBDB"/>
<path d="M58.941 529.793C55.8252 528.546 52.7493 527.19 49.6918 525.795L47.3903 524.784C46.6355 524.439 45.8602 524.155 45.0703 523.936L40.3043 522.435L30.7786 519.365C27.6044 518.344 24.4517 517.246 21.2897 516.186C24.4885 517.097 27.6966 517.952 30.8831 518.917L40.4488 521.743L45.2239 523.198C46.0366 523.419 46.837 523.697 47.6207 524.028C48.3982 524.357 49.1571 524.735 49.9223 525.088C52.9848 526.527 55.9911 528.095 58.941 529.793Z" fill="#DBDBDB"/>
<path d="M62.1674 526.89C59.0946 525.858 56.0556 524.747 53.0504 523.555C51.5386 522.99 50.0298 522.354 48.5303 521.852L43.921 520.358L34.7302 517.306C31.6574 516.299 28.6215 515.186 25.5671 514.127C28.6553 515.031 31.7588 515.893 34.8378 516.836L44.0808 519.662C47.1855 520.537 50.2482 521.598 53.2563 522.841C56.2676 524.078 59.2329 525.438 62.1674 526.89Z" fill="#DBDBDB"/>
<path d="M65.2772 524.308C62.2351 523.287 59.2115 522.188 56.2185 521.022L51.7292 519.305L47.1353 517.97L37.9414 515.254C34.8686 514.353 31.8265 513.36 28.769 512.428C31.8603 513.219 34.9608 513.961 38.0428 514.798L47.292 517.292L51.9012 518.585C53.4376 519.104 54.9126 519.747 56.4121 520.351C59.402 521.545 62.358 522.891 65.2772 524.308Z" fill="#DBDBDB"/>
<path d="M67.9382 522.397C64.9268 521.181 62.0046 519.722 59.0608 518.373C58.3495 518.008 57.6112 517.717 56.8546 517.504L54.5284 516.9L49.87 515.713C43.6588 514.116 37.4569 512.468 31.2641 510.767C37.5224 512.117 43.7705 513.537 50.0083 515.028L54.679 516.172L57.0143 516.755C57.8092 516.955 58.5844 517.248 59.3282 517.628C62.2698 519.04 65.1439 520.632 67.9382 522.397Z" fill="#DBDBDB"/>
<path d="M70.8544 520.069C67.843 518.85 64.9207 517.391 61.977 516.045C61.2656 515.681 60.5272 515.391 59.7707 515.179L57.4446 514.572L52.7862 513.399C46.575 511.802 40.373 510.154 34.1802 508.453C40.4385 509.803 46.6866 511.223 52.9244 512.714L57.5951 513.858L59.9305 514.445C60.7252 514.646 61.5003 514.938 62.2443 515.317C65.1854 516.725 68.0595 518.311 70.8544 520.069Z" fill="#DBDBDB"/>
<path d="M73.7673 517.737C70.756 516.522 67.8337 515.059 64.89 513.714C64.1784 513.349 63.4401 513.058 62.6837 512.845L60.3576 512.24L55.6991 511.057C49.488 509.458 43.285 507.809 37.0901 506.111C43.3485 507.461 49.5965 508.881 55.8344 510.372L60.505 511.516L62.8404 512.099C63.6352 512.3 64.4104 512.592 65.1542 512.972C68.0971 514.382 70.9723 515.973 73.7673 517.737Z" fill="#DBDBDB"/>
<path d="M76.6835 515.405C73.6721 514.187 70.7499 512.728 67.8061 511.382C67.0945 511.019 66.3561 510.729 65.5998 510.516L63.2737 509.912L58.6122 508.725C52.4031 507.129 46.2011 505.48 40.0063 503.78C46.2646 505.129 52.5127 506.549 58.7505 508.04L63.4212 509.181L65.7565 509.768C66.5512 509.969 67.3263 510.261 68.0704 510.64C71.013 512.051 73.8881 513.642 76.6835 515.405Z" fill="#DBDBDB"/>
<path d="M80.4446 513.533C77.4333 512.318 74.5141 510.856 71.5672 509.51C70.8566 509.146 70.1193 508.857 69.364 508.644L67.0379 508.04L62.3795 506.853C56.1704 505.256 49.9684 503.608 43.7736 501.907C50.0319 503.257 56.28 504.677 62.5178 506.168L67.1854 507.309L69.5208 507.895C70.3155 508.096 71.0907 508.388 71.8346 508.768C74.7763 510.179 77.6504 511.77 80.4446 513.533Z" fill="#DBDBDB"/>
<path d="M84.1043 511.683C81.093 510.467 78.1707 509.008 75.227 507.659C74.5155 507.294 73.7771 507.004 73.0207 506.79L70.6946 506.186L66.0362 505.002C59.825 503.403 53.622 501.755 47.4272 500.057C53.6855 501.406 59.9335 502.826 66.1714 504.317L70.8421 505.462L73.1774 506.044C73.9722 506.245 74.7474 506.538 75.4912 506.917C78.4339 508.328 81.309 509.919 84.1043 511.683Z" fill="#DBDBDB"/>
<path d="M87.0204 509.351C84.0152 508.136 81.0991 506.677 78.1554 505.334C77.4477 504.97 76.7122 504.683 75.9583 504.476L73.6322 503.914L68.9645 502.823C62.7411 501.355 56.5237 499.844 50.3125 498.287C56.579 499.5 62.8343 500.786 69.0783 502.144L73.7582 503.204L76.0996 503.745C76.8955 503.939 77.6711 504.231 78.4135 504.614C81.3536 506.016 84.2267 507.597 87.0204 509.351Z" fill="#DBDBDB"/>
<path d="M89.9396 507.019C86.9375 505.804 84.0244 504.352 81.0899 503.01C80.3852 502.645 79.6515 502.358 78.899 502.155L76.5698 501.639L71.8899 500.653C65.6521 499.332 59.4183 497.972 53.1887 496.573C59.4695 497.628 65.7381 498.762 71.9943 499.975L76.6835 500.915L79.028 501.409C79.8258 501.599 80.6028 501.889 81.3449 502.275C84.2808 503.68 87.1497 505.264 89.9396 507.019Z" fill="#DBDBDB"/>
<path d="M92.8527 504.691C89.8567 503.48 86.9498 502.031 84.0183 500.689C83.3192 500.322 82.5891 500.04 81.8397 499.845L79.5044 499.407L74.8091 498.598C68.5498 497.517 62.2904 496.421 56.0372 495.259C62.3324 496.06 68.6184 496.945 74.8951 497.916L79.5996 498.679L81.9565 499.099C82.7564 499.28 83.5351 499.568 84.2765 499.958C87.2059 501.36 90.0687 502.94 92.8527 504.691Z" fill="#DBDBDB"/>
<path d="M103.589 551.283C100.246 550.007 96.9088 548.714 93.5871 547.365L83.6404 543.288C81.9841 542.628 80.3248 541.875 78.687 541.25L73.6506 539.417C70.2982 538.163 66.958 536.877 63.6363 535.531C67.044 536.566 70.4334 537.65 73.8104 538.788L78.8683 540.529C80.5706 541.179 82.2146 541.843 83.8708 542.55C87.171 543.963 90.4835 545.337 93.7653 546.807C97.0471 548.276 100.329 549.756 103.589 551.283Z" fill="#DBDBDB"/>
<path d="M56.5412 532.634C53.1611 531.436 49.781 530.221 46.4347 528.953L36.3773 525.113L31.3717 523.191L26.2862 521.478C22.9061 520.305 19.526 519.097 16.1674 517.825C19.6059 518.779 23.0259 519.796 26.4337 520.846L31.5407 522.471C33.2615 523.078 34.9208 523.703 36.5955 524.371C39.9326 525.706 43.2789 527.003 46.5975 528.395C49.9162 529.786 53.241 531.182 56.5412 532.634Z" fill="#DBDBDB"/>
<path d="M575.132 311.774C572.262 309.4 480.667 276.727 476.494 278.02C476.04 278.169 475.075 282.902 470.939 294.655C470.739 295.213 427.157 355.952 427.157 355.952L486.804 392.143L520.844 336.968C520.844 336.968 563.424 327.685 567.883 325.71C572.342 323.735 578.002 314.144 575.132 311.774Z" fill="#FFC3BD"/>
<path d="M575.132 311.774C572.262 309.4 480.667 276.727 476.494 278.02C476.04 278.169 475.075 282.902 470.939 294.655C470.739 295.213 464.775 303.169 461.849 307.503C465.644 311.251 502.241 340.953 512.296 350.823L520.847 336.965C520.847 336.965 563.427 327.681 567.886 325.706C572.345 323.732 578.002 314.144 575.132 311.774Z" fill="#FFC727"/>
<path d="M493.942 288.254C493.475 289.449 492.884 290.575 492.181 291.606C490.793 293.688 488.995 295.363 486.936 296.492C484.844 297.612 482.538 298.099 480.237 297.905C477.959 297.645 475.754 296.837 473.766 295.531C473.655 295.464 473.766 295.266 473.87 295.337C475.85 296.439 478.028 296.99 480.227 296.944C482.427 296.899 484.586 296.259 486.53 295.075C488.381 293.963 489.986 292.38 491.225 290.448C491.826 289.503 492.341 288.49 492.762 287.424C492.97 286.892 493.15 286.348 493.303 285.792C493.459 285.227 493.499 284.753 493.973 284.435C494.086 284.367 494.217 284.352 494.34 284.393C494.462 284.434 494.566 284.527 494.63 284.654C495.137 285.555 494.28 287.378 493.942 288.254Z" fill="white"/>
<path d="M555.85 328.875C553.837 328.006 552.107 326.441 550.899 324.396C549.556 322.325 548.442 320.071 547.584 317.684C546.721 315.342 546.117 312.886 545.786 310.371C545.628 309.147 545.531 307.913 545.494 306.676C545.394 305.417 545.458 304.148 545.685 302.911C545.697 302.864 545.721 302.824 545.755 302.795C545.788 302.766 545.829 302.75 545.871 302.75C545.913 302.75 545.954 302.766 545.987 302.795C546.021 302.824 546.045 302.864 546.057 302.911C546.196 304.012 546.284 305.122 546.321 306.235C546.435 307.467 546.605 308.692 546.828 309.905C547.258 312.267 547.875 314.579 548.672 316.811C550.124 321.326 552.755 325.215 556.203 327.946C556.29 328.014 556.353 328.114 556.382 328.23C556.411 328.345 556.404 328.469 556.362 328.579C556.32 328.689 556.246 328.779 556.152 328.833C556.059 328.887 555.952 328.902 555.85 328.875Z" fill="white"/>
<path d="M512.33 338.067C501.194 328.826 490.11 319.496 478.894 310.386C475.717 307.803 472.558 305.179 469.344 302.656C469.236 302.572 469.359 302.402 469.467 302.48C481.256 310.626 492.653 319.498 503.609 329.059C506.697 331.8 509.699 334.672 512.686 337.558C512.745 337.612 512.782 337.691 512.79 337.777C512.798 337.864 512.776 337.95 512.729 338.017C512.682 338.085 512.613 338.128 512.538 338.137C512.463 338.146 512.388 338.121 512.33 338.067Z" fill="white"/>
<path d="M470.382 304.723C470.343 304.82 470.286 304.906 470.217 304.977C470.137 305.048 470.048 305.112 469.965 305.179L469.485 305.532C469.144 305.793 468.8 306.041 468.444 306.274C467.752 306.726 467.045 307.139 466.329 307.538C466.228 307.595 466.136 307.411 466.234 307.344C466.904 306.867 467.562 306.366 468.21 305.85C468.517 305.599 468.843 305.352 469.163 305.104L469.667 304.705C469.814 304.559 469.99 304.455 470.18 304.402C470.215 304.395 470.251 304.4 470.284 304.416C470.317 304.431 470.346 304.457 470.367 304.491C470.388 304.524 470.401 304.563 470.403 304.604C470.406 304.645 470.399 304.686 470.382 304.723Z" fill="white"/>
<path d="M475.582 309.128C475.542 309.225 475.486 309.312 475.416 309.382C475.336 309.453 475.25 309.517 475.164 309.584L474.684 309.937C474.343 310.198 473.999 310.446 473.643 310.679C472.951 311.131 472.245 311.544 471.529 311.943C471.43 312 471.335 311.816 471.433 311.749C472.103 311.272 472.761 310.767 473.409 310.255C473.717 310.004 474.045 309.757 474.362 309.51L474.863 309.11C475.01 308.964 475.186 308.86 475.376 308.807C475.411 308.799 475.448 308.804 475.482 308.819C475.515 308.834 475.544 308.86 475.566 308.894C475.587 308.927 475.6 308.967 475.603 309.008C475.606 309.05 475.598 309.091 475.582 309.128Z" fill="white"/>
<path d="M480.775 313.533C480.735 313.63 480.679 313.717 480.609 313.788C480.529 313.858 480.443 313.922 480.357 313.989L479.877 314.342C479.536 314.604 479.192 314.851 478.836 315.084C478.144 315.536 477.438 315.949 476.722 316.349C476.62 316.405 476.528 316.222 476.626 316.154C477.296 315.678 477.954 315.172 478.599 314.657L479.552 313.911L480.056 313.512C480.203 313.365 480.379 313.261 480.569 313.208C480.605 313.2 480.642 313.205 480.676 313.22C480.71 313.236 480.74 313.262 480.761 313.296C480.783 313.33 480.795 313.37 480.798 313.412C480.8 313.454 480.792 313.496 480.775 313.533Z" fill="white"/>
<path d="M485.968 317.935C485.928 318.032 485.872 318.118 485.802 318.189C485.722 318.26 485.636 318.323 485.55 318.391L485.071 318.744C484.729 319.005 484.388 319.252 484.032 319.486C483.338 319.938 482.631 320.351 481.918 320.75C481.816 320.807 481.724 320.623 481.823 320.552C482.492 320.079 483.15 319.574 483.798 319.058C484.106 318.807 484.434 318.564 484.751 318.313L485.252 317.914C485.4 317.768 485.576 317.664 485.765 317.61C485.801 317.603 485.837 317.608 485.871 317.623C485.905 317.639 485.934 317.666 485.955 317.7C485.976 317.733 485.988 317.773 485.991 317.815C485.993 317.857 485.985 317.898 485.968 317.935Z" fill="white"/>
<path d="M491.167 322.34C491.127 322.437 491.071 322.523 491.001 322.594C490.921 322.665 490.835 322.728 490.749 322.795L490.27 323.149C489.929 323.41 489.584 323.657 489.228 323.891C488.537 324.343 487.83 324.756 487.111 325.155C487.013 325.212 486.92 325.028 487.016 324.957C487.689 324.484 488.343 323.979 488.991 323.463C489.299 323.212 489.627 322.969 489.944 322.718L490.445 322.319C490.593 322.173 490.769 322.069 490.958 322.015C490.994 322.006 491.032 322.01 491.066 322.025C491.101 322.04 491.131 322.066 491.153 322.1C491.175 322.135 491.188 322.175 491.19 322.218C491.193 322.26 491.185 322.303 491.167 322.34Z" fill="white"/>
<path d="M496.36 326.745C496.32 326.842 496.264 326.928 496.194 326.999C496.114 327.07 496.025 327.133 495.942 327.201L495.463 327.554C495.122 327.812 494.778 328.063 494.421 328.296C493.73 328.748 493.023 329.161 492.307 329.56C492.206 329.613 492.113 329.433 492.212 329.363C492.882 328.889 493.539 328.384 494.185 327.868C494.492 327.617 494.821 327.374 495.137 327.123L495.641 326.724C495.789 326.578 495.965 326.474 496.154 326.42C496.19 326.412 496.227 326.416 496.261 326.432C496.295 326.447 496.325 326.474 496.347 326.508C496.368 326.542 496.381 326.582 496.383 326.624C496.386 326.666 496.378 326.708 496.36 326.745Z" fill="white"/>
<path d="M501.556 331.143C501.516 331.24 501.46 331.326 501.39 331.397C501.31 331.468 501.224 331.532 501.138 331.595L500.659 331.948C500.318 332.21 499.974 332.457 499.617 332.69C498.926 333.142 498.219 333.556 497.5 333.955C497.402 334.008 497.307 333.828 497.405 333.757C498.075 333.284 498.732 332.779 499.381 332.263C499.688 332.012 500.017 331.768 500.333 331.517L500.834 331.118C500.983 330.972 501.16 330.868 501.35 330.814C501.387 330.806 501.425 330.81 501.459 330.826C501.494 330.841 501.523 330.868 501.545 330.903C501.567 330.937 501.579 330.978 501.581 331.021C501.583 331.064 501.575 331.106 501.556 331.143Z" fill="white"/>
<path d="M506.752 335.548C506.714 335.647 506.657 335.735 506.586 335.806C506.507 335.877 506.421 335.94 506.335 336.004L505.855 336.375C505.514 336.633 505.17 336.883 504.813 337.113C504.122 337.565 503.415 337.979 502.699 338.378C502.598 338.431 502.506 338.251 502.604 338.18C503.274 337.707 503.932 337.201 504.577 336.686C504.884 336.435 505.213 336.191 505.529 335.94L506.03 335.541C506.178 335.394 506.354 335.29 506.543 335.237C506.578 335.231 506.614 335.235 506.646 335.249C506.679 335.264 506.708 335.289 506.729 335.321C506.751 335.353 506.764 335.391 506.768 335.431C506.772 335.471 506.767 335.511 506.752 335.548Z" fill="white"/>
<path d="M511.945 339.971C511.906 340.067 511.851 340.154 511.783 340.225C511.703 340.296 511.614 340.359 511.531 340.423L511.051 340.776C510.71 341.038 510.366 341.285 510.01 341.518C509.318 341.97 508.611 342.384 507.896 342.783C507.794 342.839 507.702 342.656 507.8 342.588C508.47 342.115 509.128 341.61 509.776 341.094C510.083 340.843 510.412 340.6 510.729 340.349L511.233 339.95C511.38 339.803 511.556 339.699 511.746 339.646C511.781 339.64 511.818 339.645 511.851 339.661C511.884 339.677 511.912 339.704 511.933 339.737C511.954 339.771 511.966 339.811 511.968 339.852C511.97 339.893 511.962 339.934 511.945 339.971Z" fill="white"/>
<path d="M504.368 365.222L451.755 317.624C451.755 317.624 397.738 396.987 396.819 397.524C372.771 398.114 348.802 400.908 325.139 405.878C319.025 407.291 286.44 388.992 250.003 424.248L255.485 489.869C312.79 499.293 392.732 485.11 426.801 472.29C458.97 460.177 504.368 365.222 504.368 365.222Z" fill="#A0BDFF"/>
<path d="M497.002 371.432C485.169 360.188 473.225 349.117 460.789 338.759C457.249 335.81 453.602 333.033 450.12 329.995C450.004 329.893 449.881 330.112 449.994 330.214C453.03 332.934 455.903 335.866 458.884 338.671C461.865 341.476 464.842 344.245 467.854 346.987C473.861 352.452 480.065 357.616 486.238 362.83C489.76 365.808 493.306 368.733 496.873 371.662C496.999 371.754 497.113 371.538 497.002 371.432Z" fill="#455A64"/>
<path d="M456.616 344.09C447.146 358.574 437.629 373.008 428.208 387.541C423.496 394.804 418.773 402.057 414.039 409.301C412.292 412.657 409.599 415.224 406.406 416.575C404.68 417.061 402.925 417.395 401.155 417.575L395.298 418.405C379.747 420.609 364.198 422.845 348.64 425.007C344.763 425.633 340.854 425.964 336.939 426C333.03 425.806 329.14 425.257 325.305 424.357C318.34 422.988 311.26 422.557 304.207 423.071C290.226 424.308 276.574 428.574 263.972 435.644C262.371 436.516 260.782 437.41 259.206 438.346C259.074 438.424 259.206 438.643 259.326 438.572C272.319 431.261 286.335 426.651 300.726 424.954C307.809 424.154 314.949 424.316 321.999 425.438C325.769 426.067 329.494 427.031 333.289 427.445C337.18 427.788 341.092 427.682 344.965 427.13C352.779 426.18 360.575 424.944 368.377 423.838L391.804 420.517C395.688 419.966 399.594 419.503 403.466 418.846C406.63 418.546 409.614 417.028 411.934 414.536C414.286 411.485 416.442 408.242 418.387 404.833C420.766 401.095 423.155 397.368 425.556 393.652C434.904 379.098 444.174 364.48 453.476 349.887L456.97 344.408C457.108 344.157 456.767 343.864 456.616 344.09Z" fill="#455A64"/>
<path d="M426.367 197.174C423.43 199.431 364.717 286.608 364.296 291.546C364.256 292.09 367.778 294.786 375.902 303.359C376.644 306.253 377.034 309.251 377.061 312.268C378.453 331.422 379.599 374.707 379.599 374.707L441.101 357.316L430.589 283.619L427.861 264.451C427.861 264.451 435.22 215.349 435.174 209.859C435.128 204.37 429.302 194.916 426.367 197.174Z" fill="#FFC3BD"/>
<path d="M426.367 197.174C423.43 199.431 364.717 286.608 364.296 291.546C364.256 292.09 367.778 294.786 375.902 303.359C376.644 306.253 377.034 309.252 377.061 312.269C387.124 306.687 418.037 290.268 430.589 283.612L427.861 264.445C427.861 264.445 435.22 215.342 435.174 209.852C435.128 204.363 429.302 194.917 426.367 197.174Z" fill="#FFC727"/>
<path d="M378.76 276.356C379.572 277.278 380.283 278.31 380.877 279.43C382.09 281.654 382.828 284.177 383.028 286.791C383.203 289.436 382.788 292.088 381.821 294.496C380.811 296.858 379.38 298.949 377.62 300.632C377.525 300.728 377.402 300.547 377.5 300.452C379.092 298.706 380.304 296.554 381.037 294.17C381.771 291.785 382.006 289.236 381.722 286.728C381.465 284.345 380.737 282.062 379.596 280.051C379.036 279.075 378.391 278.167 377.669 277.342C377.308 276.931 376.927 276.545 376.526 276.187C376.121 275.834 375.749 275.615 375.657 274.989C375.64 274.844 375.674 274.696 375.75 274.579C375.826 274.461 375.939 274.381 376.065 274.357C376.978 274.124 378.167 275.685 378.76 276.356Z" fill="white"/>
<path d="M433.542 223.929C432.129 225.793 430.248 227.108 428.159 227.692C425.998 228.412 423.767 228.82 421.518 228.907C419.308 229.015 417.095 228.805 414.93 228.282C413.877 228.022 412.838 227.694 411.818 227.3C410.756 226.967 409.744 226.452 408.815 225.773C408.782 225.744 408.757 225.703 408.746 225.657C408.734 225.61 408.736 225.56 408.752 225.515C408.767 225.47 408.795 225.432 408.831 225.406C408.866 225.381 408.909 225.37 408.951 225.374C409.898 225.61 410.833 225.904 411.753 226.254C412.797 226.562 413.855 226.808 414.921 226.992C416.996 227.358 419.095 227.503 421.193 227.427C425.381 227.449 429.473 225.979 432.906 223.219C433.306 222.884 433.859 223.463 433.542 223.929Z" fill="white"/>
<path d="M426.524 276.3C414.159 283.171 401.751 289.943 389.444 296.958C385.957 298.944 382.447 300.89 378.997 302.942C378.883 303.013 378.812 302.805 378.92 302.734C390.757 294.681 402.963 287.37 415.486 280.832C419.051 279.009 422.677 277.338 426.306 275.692C426.341 275.676 426.378 275.667 426.415 275.667C426.453 275.667 426.49 275.676 426.525 275.692C426.559 275.709 426.591 275.733 426.617 275.764C426.644 275.794 426.665 275.831 426.679 275.871C426.693 275.91 426.701 275.953 426.701 275.996C426.701 276.04 426.693 276.082 426.679 276.122C426.665 276.162 426.643 276.198 426.617 276.229C426.59 276.259 426.559 276.283 426.524 276.3Z" fill="white"/>
<path d="M381.052 302.861C381.108 302.947 381.148 303.046 381.169 303.151C381.185 303.264 381.191 303.384 381.203 303.504C381.221 303.727 381.243 303.946 381.258 304.165C381.295 304.635 381.323 305.101 381.332 305.578C381.332 306.493 381.332 307.404 381.292 308.319C381.292 308.446 381.102 308.453 381.095 308.319C381.049 307.415 380.976 306.51 380.89 305.61C380.847 305.172 380.813 304.73 380.773 304.292C380.752 304.056 380.73 303.821 380.705 303.585C380.66 303.367 380.66 303.14 380.705 302.921C380.716 302.881 380.736 302.844 380.764 302.816C380.792 302.788 380.826 302.77 380.862 302.764C380.899 302.758 380.936 302.763 380.97 302.781C381.003 302.798 381.032 302.826 381.052 302.861Z" fill="white"/>
<path d="M386.891 299.703C386.946 299.788 386.986 299.886 387.008 299.989C387.023 300.106 387.029 300.222 387.041 300.342C387.06 300.561 387.078 300.78 387.097 301.003C387.134 301.473 387.161 301.936 387.17 302.416C387.186 303.331 387.17 304.242 387.13 305.154C387.13 305.281 386.94 305.288 386.934 305.154C386.888 304.249 386.814 303.345 386.728 302.444C386.685 302.006 386.651 301.565 386.611 301.127C386.593 300.893 386.568 300.66 386.547 300.42C386.501 300.202 386.501 299.974 386.547 299.756C386.558 299.717 386.579 299.682 386.607 299.655C386.635 299.629 386.669 299.612 386.704 299.606C386.74 299.601 386.777 299.607 386.81 299.624C386.842 299.641 386.871 299.669 386.891 299.703Z" fill="white"/>
<path d="M392.732 296.542C392.788 296.628 392.828 296.726 392.849 296.831C392.867 296.944 392.874 297.064 392.883 297.184C392.901 297.407 392.92 297.626 392.938 297.845C392.975 298.315 393 298.781 393.009 299.258C393.024 300.173 393.009 301.084 392.972 301.999C392.972 302.127 392.781 302.134 392.775 301.999C392.729 301.095 392.655 300.194 392.569 299.29C392.526 298.852 392.493 298.41 392.453 297.972C392.431 297.739 392.41 297.506 392.388 297.266C392.342 297.047 392.342 296.82 392.388 296.602C392.399 296.562 392.419 296.526 392.447 296.499C392.474 296.472 392.508 296.454 392.544 296.448C392.58 296.442 392.616 296.447 392.65 296.464C392.683 296.48 392.712 296.507 392.732 296.542Z" fill="white"/>
<path d="M398.571 293.38C398.626 293.465 398.666 293.562 398.687 293.666C398.706 293.783 398.712 293.899 398.721 294.019C398.743 294.238 398.761 294.457 398.776 294.68C398.813 295.15 398.841 295.616 398.85 296.093C398.866 297.008 398.85 297.919 398.813 298.834C398.813 298.961 398.623 298.968 398.617 298.834C398.571 297.93 398.497 297.029 398.411 296.125C398.368 295.687 398.334 295.245 398.294 294.807C398.272 294.574 398.251 294.341 398.229 294.101C398.184 293.882 398.184 293.655 398.229 293.436C398.241 293.398 398.262 293.363 398.289 293.337C398.317 293.311 398.35 293.294 398.385 293.288C398.42 293.282 398.456 293.288 398.489 293.304C398.522 293.32 398.55 293.346 398.571 293.38Z" fill="white"/>
<path d="M404.412 290.218C404.468 290.305 404.507 290.403 404.529 290.508C404.544 290.621 404.55 290.741 404.563 290.861C404.581 291.08 404.603 291.299 404.618 291.522C404.655 291.988 404.682 292.454 404.692 292.935C404.707 293.85 404.692 294.761 404.652 295.676C404.652 295.803 404.461 295.81 404.455 295.676C404.409 294.772 404.335 293.867 404.249 292.967C404.206 292.528 404.172 292.09 404.132 291.649C404.112 291.413 404.089 291.178 404.065 290.942C404.019 290.724 404.019 290.497 404.065 290.278C404.075 290.238 404.096 290.201 404.123 290.173C404.151 290.145 404.185 290.127 404.222 290.121C404.258 290.115 404.296 290.12 404.329 290.138C404.363 290.155 404.392 290.183 404.412 290.218Z" fill="white"/>
<path d="M410.253 287.057C410.309 287.142 410.349 287.239 410.37 287.343C410.386 287.459 410.392 287.576 410.404 287.696C410.423 287.915 410.444 288.138 410.459 288.357C410.496 288.826 410.524 289.293 410.533 289.77C410.548 290.685 410.533 291.596 410.493 292.511C410.493 292.638 410.303 292.645 410.297 292.511C410.25 291.607 410.177 290.702 410.091 289.801C410.048 289.363 410.014 288.922 409.974 288.484C409.955 288.251 409.931 288.017 409.909 287.777C409.864 287.559 409.864 287.331 409.909 287.113C409.92 287.073 409.941 287.038 409.969 287.011C409.997 286.985 410.03 286.967 410.066 286.961C410.102 286.956 410.138 286.961 410.172 286.978C410.205 286.995 410.233 287.022 410.253 287.057Z" fill="white"/>
<path d="M416.095 283.895C416.151 283.981 416.191 284.08 416.212 284.185C416.23 284.301 416.236 284.418 416.245 284.538C416.264 284.757 416.282 284.976 416.301 285.198C416.338 285.668 416.365 286.131 416.375 286.611C416.39 287.526 416.375 288.438 416.335 289.353C416.335 289.48 416.144 289.487 416.138 289.353C416.092 288.448 416.018 287.544 415.932 286.643C415.889 286.205 415.855 285.764 415.815 285.322C415.797 285.089 415.772 284.856 415.751 284.616C415.705 284.397 415.705 284.17 415.751 283.951C415.762 283.912 415.783 283.877 415.81 283.85C415.838 283.823 415.872 283.806 415.907 283.8C415.943 283.794 415.98 283.8 416.013 283.817C416.046 283.833 416.075 283.861 416.095 283.895Z" fill="white"/>
<path d="M421.918 280.737C421.974 280.823 422.014 280.922 422.035 281.027C422.053 281.14 422.059 281.26 422.068 281.38C422.09 281.602 422.108 281.821 422.124 282.04C422.161 282.51 422.188 282.976 422.198 283.453C422.213 284.368 422.198 285.28 422.161 286.195C422.161 286.322 421.97 286.329 421.964 286.195C421.918 285.29 421.844 284.389 421.758 283.485C421.715 283.047 421.681 282.606 421.641 282.168C421.62 281.934 421.598 281.701 421.577 281.461C421.531 281.243 421.531 281.015 421.577 280.797C421.588 280.758 421.608 280.723 421.636 280.697C421.663 280.67 421.696 280.653 421.731 280.647C421.767 280.64 421.803 280.646 421.836 280.661C421.869 280.677 421.897 280.703 421.918 280.737Z" fill="white"/>
<path d="M427.772 277.575C427.827 277.66 427.867 277.757 427.888 277.861C427.904 277.978 427.913 278.094 427.922 278.214C427.941 278.433 427.962 278.652 427.977 278.875C428.014 279.345 428.042 279.811 428.051 280.288C428.067 281.203 428.051 282.114 428.011 283.026C428.011 283.153 427.821 283.16 427.815 283.026C427.768 282.121 427.695 281.217 427.609 280.316C427.566 279.878 427.532 279.437 427.492 278.999C427.47 278.765 427.449 278.532 427.424 278.292C427.38 278.074 427.38 277.846 427.424 277.628C427.436 277.588 427.456 277.552 427.484 277.525C427.513 277.498 427.547 277.48 427.583 277.475C427.62 277.469 427.657 277.476 427.69 277.493C427.723 277.511 427.752 277.539 427.772 277.575Z" fill="white"/>
<path d="M433.733 304.271L371.683 319.422C371.683 319.422 379.126 419.323 378.855 420.454C359.935 423.197 340.859 424.26 321.796 423.633C321.796 423.633 279.13 402.314 250.003 439.102L245.861 503.646C327.017 514.95 435.672 509.715 450.077 477.943C465.727 443.437 433.733 304.271 433.733 304.271Z" fill="#A0BDFF"/>
<path d="M378.708 420.008C371.825 420.008 360.271 421.503 353.397 421.81C346.569 422.114 339.745 422.576 332.92 422.983C328.993 423.216 325.708 422.937 321.793 423.368C321.763 423.368 321.734 423.381 321.713 423.406C321.691 423.431 321.679 423.464 321.679 423.498C321.679 423.533 321.691 423.566 321.713 423.591C321.734 423.615 321.763 423.629 321.793 423.629C335.295 424.464 348.833 424.157 362.296 422.711C366.226 422.304 374.971 421.234 378.871 420.563C379.061 420.538 379.384 420.008 378.708 420.008Z" fill="#455A64"/>
<path d="M317.924 416.819C315.377 413.576 312.514 410.681 309.391 408.192C309.284 408.104 309.161 408.305 309.256 408.4C311.977 411.345 314.534 414.482 316.914 417.794C319.492 420.988 321.86 424.398 323.999 427.996C324.01 428.008 324.023 428.017 324.038 428.019C324.053 428.021 324.069 428.018 324.081 428.008C324.094 427.999 324.104 427.985 324.109 427.969C324.113 427.952 324.113 427.934 324.107 427.918C322.392 423.978 320.32 420.258 317.924 416.819Z" fill="#455A64"/>
<path d="M454.398 429.882C454.324 426.349 454.053 422.817 453.817 419.312C453.35 412.335 452.748 405.376 451.939 398.442C450.308 384.474 448.2 370.602 445.486 356.856C444.727 353.016 443.95 349.18 443.093 345.361C442.32 341.451 441.355 337.594 440.201 333.81C440.103 333.517 439.639 333.545 439.688 333.905C440.127 337.286 440.917 340.642 441.566 343.977C442.214 347.311 442.887 350.749 443.511 354.14C444.785 361.061 445.952 368.009 447.011 374.982C449.125 388.833 450.836 402.745 452.265 416.709C452.668 420.63 453.006 424.562 453.374 428.486C453.559 430.45 454.247 446.149 454.281 448.18C454.281 448.354 454.524 448.343 454.508 448.18C454.367 446.432 454.505 435.135 454.398 429.882Z" fill="#455A64"/>
<path d="M378.705 409.164C378.532 405.513 378.077 401.887 377.344 398.329C377.335 398.313 377.322 398.299 377.306 398.291C377.291 398.283 377.274 398.28 377.257 398.283C377.24 398.286 377.225 398.295 377.212 398.308C377.2 398.321 377.191 398.338 377.187 398.357C376.987 402.113 377.098 405.881 377.519 409.612C377.818 413.253 378.277 416.874 378.895 420.461C378.908 420.482 378.925 420.498 378.946 420.509C378.966 420.519 378.989 420.522 379.011 420.518C379.033 420.514 379.053 420.503 379.07 420.486C379.086 420.469 379.098 420.446 379.104 420.422C379.145 416.664 379.012 412.906 378.705 409.164Z" fill="#455A64"/>
<path d="M435.899 441.038C435.666 428.469 434.916 415.918 433.813 403.412C431.637 378.741 428.091 354.243 424.287 329.84C423.822 326.844 423.355 323.851 422.886 320.86C422.858 320.69 422.643 320.771 422.668 320.934C426.214 345.344 429.852 369.758 432.261 394.362C433.456 406.578 434.372 418.836 434.827 431.118C435.048 437.078 435.177 443.048 435.134 449.014C435.208 454.02 434.806 459.02 433.936 463.925C433.091 468.788 431.117 473.298 428.223 476.975C425.119 480.469 421.342 483.072 417.198 484.573C412.709 486.266 408.121 487.589 403.469 488.53C398.347 489.696 393.187 490.648 387.988 491.388C367.185 493.971 346.246 494.819 325.336 493.927C303.919 493.433 282.504 492.515 261.083 492.246C258.398 492.211 255.715 492.172 253.033 492.098C252.885 492.098 252.891 492.355 253.033 492.359C264.079 492.751 275.12 493.309 286.167 493.698C297.11 494.084 308.055 494.456 319 494.814C340.148 495.909 361.336 495.383 382.423 493.242C392.63 492.121 402.749 490.113 412.693 487.237C416.884 486.11 420.897 484.237 424.585 481.687C428.098 479.129 430.911 475.481 432.697 471.164C436.542 461.919 436.084 451.003 435.899 441.038Z" fill="#455A64"/>
<path d="M433.825 315.437C418.655 318.14 403.521 321.05 388.529 324.859C384.26 325.943 380.032 327.232 375.743 328.207C375.598 328.243 375.66 328.494 375.804 328.462C379.59 327.66 383.409 327.141 387.207 326.438C391.005 325.735 394.788 325.025 398.577 324.251C406.121 322.718 413.6 320.814 421.091 318.973C425.369 317.913 429.631 316.808 433.893 315.688C434.04 315.656 433.976 315.405 433.825 315.437Z" fill="#455A64"/>
<path d="M116.642 406.503C118.894 395.23 122.64 384.421 127.748 374.456C130.682 369.362 140.454 355.755 144.034 358.044C147.613 360.333 145.057 364.6 145.057 364.6C145.057 364.6 149.933 359.563 153.353 362.24C156.773 364.918 152.613 371.425 152.613 371.425C152.613 371.425 157.947 366.67 161.189 369.627C164.431 372.584 159.299 378.299 159.299 378.299C159.299 378.299 164.004 373.707 165.78 377.416C167.931 381.896 158.405 389.268 155.415 395.079C154.736 396.4 143.278 423.004 143.278 423.004L116.642 406.503Z" fill="#FFC3BD"/>
<path d="M159.275 378.43C153.41 382.558 148.977 388.904 146.738 396.379C146.673 396.548 146.43 396.478 146.492 396.291C149.067 387.385 151.279 382.196 159.063 378.024C159.444 377.822 159.607 378.168 159.275 378.43Z" fill="#263238"/>
<path d="M152.822 371.093C147.071 376.179 142.49 382.806 139.48 390.395C139.421 390.522 139.231 390.423 139.28 390.289C142.635 381.21 144.946 376.088 152.493 370.747C152.828 370.506 153.132 370.8 152.822 371.093Z" fill="#263238"/>
<path d="M144.516 365.162C138.972 370.52 134.803 377.513 132.455 385.389C132.443 385.436 132.415 385.475 132.378 385.499C132.34 385.522 132.296 385.527 132.255 385.513C132.215 385.499 132.18 385.467 132.16 385.424C132.14 385.381 132.136 385.33 132.148 385.283C133.725 376.938 138.093 369.639 144.31 364.964C144.753 364.611 144.906 364.738 144.516 365.162Z" fill="#263238"/>
<path d="M142.608 429.875C146.622 426.282 150.399 422.352 153.91 418.119C156.918 413.88 163.082 393.391 159.305 391.6C154.429 389.3 148.839 400.332 146.707 406.147C146.707 406.147 135.43 400.813 129.929 407.733C124.429 414.653 142.608 429.875 142.608 429.875Z" fill="#FFC3BD"/>
<path d="M157.778 391.472C152.014 393.062 149.657 400.9 147.232 406.365C147.2 406.448 147.15 406.52 147.088 406.576C147.026 406.632 146.953 406.669 146.875 406.686C146.798 406.702 146.718 406.696 146.642 406.67C146.567 406.643 146.499 406.595 146.443 406.531C141.588 404.659 134.262 403.642 129.92 407.347C129.896 407.372 129.863 407.386 129.831 407.384C129.798 407.382 129.767 407.365 129.745 407.337C129.723 407.309 129.712 407.272 129.713 407.234C129.715 407.196 129.73 407.161 129.754 407.135C133.939 402.433 141.207 402.758 146.415 405.199C148.827 399.547 151.491 391.807 157.766 391.422C157.77 391.424 157.774 391.427 157.777 391.431C157.78 391.434 157.782 391.439 157.783 391.443C157.784 391.448 157.784 391.453 157.784 391.458C157.783 391.463 157.781 391.468 157.778 391.472Z" fill="#263238"/>
<path d="M182.312 430.677C168.958 453.751 150.903 472.724 129.717 485.947C116.129 494.51 101.884 484.534 99.5392 478.208C94.5243 464.685 112.009 412.198 118.32 401.618C120.192 398.477 123.006 404.773 131.791 413.579C135.952 417.751 151.906 416.677 150.778 421.849C149.973 425.533 144.756 436 145.487 435.933C147.291 435.76 160.492 424.728 174.467 414.385C193.7 400.155 186.801 423.103 182.312 430.677Z" fill="#FFC3BD"/>
<path d="M145.512 435.51C144.676 436.792 132.606 465.12 129.736 470.955C129.662 471.104 129.859 471.227 129.936 471.083C133.008 465.385 136.189 459.754 138.899 453.815C140.239 450.883 141.618 447.944 142.718 444.885C143.244 443.422 143.729 441.946 144.227 440.469C144.858 438.92 145.359 437.306 145.724 435.647C145.745 435.513 145.592 435.382 145.512 435.51Z" fill="#263238"/>
<path d="M146.642 433.249L177.386 446.775C182.295 438.68 186.834 430.296 190.983 421.658C196.49 409.096 193.721 403.801 179.823 410.287C170.521 414.621 146.642 433.249 146.642 433.249Z" fill="#744FC2"/>
<path d="M150.877 431.267C155.471 432.881 160.031 434.566 164.535 436.485C166.789 437.443 169.022 438.439 171.234 439.473C173.453 440.508 175.582 441.808 177.807 442.804C177.93 442.861 177.844 443.083 177.724 443.02C175.548 441.889 173.216 441.091 170.991 440.102C168.767 439.113 166.517 438.127 164.274 437.163C159.794 435.234 155.314 433.277 150.797 431.482C150.668 431.444 150.754 431.225 150.877 431.267Z" fill="#263238"/>
<path d="M207.174 434.121H201.363C201.013 430.186 200.129 426.339 198.745 422.718C199.436 426.464 199.695 430.298 199.516 434.121H194.412C193.924 427.611 192.303 421.281 189.647 415.504C191.105 421.566 191.812 427.833 191.748 434.121H146.781C144.786 423.216 146.332 411.347 145.552 413.936C143.79 420.478 142.841 427.274 142.731 434.121H137.725C137.585 431.367 137.721 428.604 138.131 425.887C138.788 422.266 136.204 429.419 135.875 434.121H132.689C132.396 424.993 133.865 415.904 136.991 407.507C143.557 392.769 139.713 387.315 142.408 371.178C145.481 352.808 166.462 330.617 187.434 353.826C191.021 357.408 193.905 361.826 195.896 366.786C197.886 371.746 198.937 377.136 198.979 382.599C199.077 395.726 196.48 402.66 200.398 409.404C204.777 416.667 207.14 425.284 207.174 434.121Z" fill="#263238"/>
<path d="M130.636 431.927C130.1 426.336 130.557 420.678 131.979 415.296C132.657 412.59 133.526 409.952 134.575 407.408C135.079 406.136 135.703 404.882 136.241 403.67C136.788 402.473 137.259 401.232 137.651 399.957C139.059 394.699 139.965 389.28 140.352 383.796C140.66 381.033 140.967 378.264 141.468 375.523C141.942 372.777 142.682 370.102 143.674 367.546C142.377 372.888 141.627 378.385 141.44 383.927C141.259 386.7 141.025 389.48 140.684 392.26C140.337 395.062 139.763 397.822 138.97 400.501C138.545 401.845 138.036 403.152 137.449 404.412C136.871 405.666 136.299 406.832 135.765 408.072C134.695 410.528 133.778 413.067 133.018 415.67C132.25 418.279 131.66 420.951 131.251 423.664C131.026 425.021 130.882 426.392 130.768 427.773C130.655 429.154 130.621 430.535 130.636 431.927Z" fill="#263238"/>
<path d="M198.991 382.602C199.089 384.835 198.951 387.064 198.991 389.279C199.031 391.493 199.034 393.701 199.203 395.884C199.365 398.059 199.685 400.214 200.159 402.328C200.263 402.858 200.426 403.366 200.552 403.886L200.653 404.274L200.764 404.596C200.85 404.818 200.951 405.048 201.071 405.281C201.523 406.214 202.042 407.153 202.549 408.107C203.548 410.018 204.528 411.972 205.379 414.007C206.237 416.04 206.957 418.147 207.53 420.309C208.098 422.469 208.488 424.685 208.695 426.929C208.884 429.161 208.876 431.41 208.67 433.641C208.533 429.225 207.798 424.86 206.492 420.704C205.148 416.59 203.431 412.649 201.369 408.948C200.875 407.994 200.365 407.054 199.885 406.034C199.765 405.772 199.652 405.507 199.544 405.221C199.492 405.076 199.44 404.91 199.394 404.765L199.289 404.352C199.16 403.801 198.982 403.261 198.902 402.702C198.457 400.493 198.202 398.239 198.14 395.973C198.076 393.733 198.141 391.491 198.333 389.261C198.499 387.014 198.776 384.813 198.991 382.602Z" fill="#263238"/>
<path d="M244.963 506.044C254.692 494.817 260.977 480.254 262.868 464.556C264.758 448.859 262.151 432.88 255.442 419.037C255.442 419.037 240.83 421.708 237.005 420.846C225.374 418.242 216.657 410.838 203.265 405.101C189.874 399.364 180.622 403.868 175.303 414.325C173.975 416.935 167.445 455.059 172.23 468.581C175.982 479.218 191.18 482.302 191.18 482.302C191.18 482.302 219.388 509.291 244.963 506.044Z" fill="#744FC2"/>
<path d="M192.523 412.569C192.424 414.307 187.044 426.497 180.339 427.405C178.154 427.699 176.234 414.063 176.234 414.063L175.89 413.091L171.114 399.519L183.983 386.145L185.861 384.34C185.861 384.34 186.955 388.151 188.276 392.917C188.338 393.136 188.399 393.358 188.464 393.595C188.528 393.832 188.623 394.114 188.688 394.365C188.894 395.072 189.1 395.799 189.302 396.524C189.453 397.078 189.61 397.615 189.739 398.198C189.868 398.781 190.025 399.353 190.178 399.936C191.21 404.08 191.993 408.301 192.523 412.569Z" fill="#FFC3BD"/>
<path d="M188.276 392.923C187.609 397.118 186.156 401.096 184.017 404.58C181.878 408.064 179.104 410.971 175.89 413.098L171.114 399.526L183.983 386.152L185.861 384.346C185.861 384.346 186.955 388.158 188.276 392.923Z" fill="#263238"/>
<path d="M149.927 384.442C154.924 409.488 168.539 408.877 173.235 407.634C177.497 406.503 191.893 402.035 189.173 376.526C186.454 351.017 174.731 345.775 164.877 347.764C155.022 349.752 144.931 359.393 149.927 384.442Z" fill="#FFC3BD"/>
<path d="M153.188 379.568C153.651 379.31 154.103 379.025 154.54 378.713C155.05 378.486 155.482 378.072 155.769 377.536C155.829 377.348 155.834 377.142 155.782 376.951C155.731 376.759 155.625 376.592 155.483 376.477C155.17 376.294 154.82 376.211 154.469 376.235C154.119 376.26 153.78 376.392 153.489 376.618C152.837 376.971 152.324 377.591 152.048 378.356C151.994 378.535 151.987 378.728 152.027 378.911C152.067 379.095 152.153 379.261 152.274 379.389C152.395 379.518 152.545 379.603 152.708 379.635C152.87 379.666 153.037 379.643 153.188 379.568Z" fill="#263238"/>
<path d="M168.134 374.915C167.624 374.997 167.111 375.049 166.597 375.071C166.062 375.211 165.502 375.146 165.003 374.883C164.861 374.767 164.757 374.6 164.706 374.408C164.655 374.217 164.66 374.011 164.72 373.824C164.891 373.471 165.142 373.178 165.445 372.974C165.748 372.771 166.093 372.664 166.444 372.665C167.156 372.541 167.884 372.726 168.484 373.184C168.614 373.298 168.712 373.453 168.767 373.629C168.822 373.806 168.832 373.997 168.795 374.18C168.758 374.362 168.676 374.529 168.559 374.659C168.441 374.79 168.294 374.879 168.134 374.915Z" fill="#263238"/>
<path d="M166.917 382.111C166.917 382.044 167.052 382.153 167.067 382.224C167.43 383.923 168.094 385.802 169.556 385.937C169.603 385.937 169.618 386.025 169.556 386.036C167.869 386.29 167.021 383.789 166.917 382.111Z" fill="#263238"/>
<path d="M167.799 379.938C170.107 378.974 171.609 384.354 169.473 385.237C167.338 386.12 165.863 380.74 167.799 379.938Z" fill="#263238"/>
<path d="M168.798 379.864C169.292 380.02 169.839 380.405 170.349 380.281C170.936 380.136 171.21 379.412 171.431 378.734C171.455 378.663 171.508 378.695 171.529 378.765C171.74 379.231 171.789 379.771 171.666 380.277C171.543 380.782 171.256 381.214 170.866 381.486C170.03 381.948 169.145 381.27 168.628 380.316C168.53 380.157 168.598 379.818 168.798 379.864Z" fill="#263238"/>
<path d="M157.631 384.707C157.6 384.647 157.542 384.828 157.56 384.898C158.083 386.544 158.442 388.526 157.293 389.575C157.256 389.607 157.293 389.688 157.33 389.664C158.854 388.798 158.356 386.17 157.631 384.707Z" fill="#263238"/>
<path d="M155.839 383.464C153.455 384.142 154.813 389.572 157.019 388.943C159.226 388.314 157.825 382.895 155.839 383.464Z" fill="#263238"/>
<path d="M154.945 384.146C154.638 384.556 154.404 385.206 153.968 385.382C153.461 385.591 152.933 385.132 152.462 384.676C152.413 384.63 152.389 384.676 152.404 384.761C152.638 385.82 153.206 386.788 154.125 386.704C154.961 386.622 155.317 385.541 155.274 384.436C155.265 384.231 155.065 383.98 154.945 384.146Z" fill="#263238"/>
<path d="M169.778 395.157C169.563 395.687 169.391 396.362 168.89 396.634C168.355 396.849 167.786 396.932 167.221 396.877C167.21 396.876 167.198 396.88 167.188 396.887C167.179 396.894 167.171 396.905 167.168 396.917C167.164 396.93 167.163 396.943 167.167 396.956C167.171 396.969 167.178 396.979 167.187 396.987C167.495 397.222 167.853 397.357 168.223 397.378C168.592 397.398 168.96 397.304 169.286 397.104C169.548 396.892 169.75 396.596 169.866 396.253C169.982 395.909 170.007 395.534 169.938 395.175C169.931 395.069 169.812 395.079 169.778 395.157Z" fill="#263238"/>
<path d="M162.077 391.268C162.077 391.268 162.446 393.871 162.763 395.051C162.793 395.16 163.07 395.125 163.411 395.026C163.429 395.026 163.442 395.026 163.451 395.026C164.382 394.898 165.264 394.477 166 393.809C166.736 393.142 167.298 392.254 167.624 391.243C167.664 391.102 167.501 391.027 167.427 391.133C166.396 392.623 164.975 393.69 163.374 394.175C163.214 393.875 162.87 389.692 162.704 389.734C161.935 390.093 161.212 390.568 160.553 391.147C159.631 385.75 159.496 380.228 158.525 374.869C158.517 374.831 158.497 374.798 158.47 374.775C158.442 374.752 158.408 374.74 158.374 374.742C158.34 374.744 158.308 374.76 158.283 374.786C158.258 374.813 158.241 374.848 158.236 374.887C158.237 380.811 158.752 386.719 159.773 392.525C159.849 393.246 161.721 391.614 162.077 391.268Z" fill="#263238"/>
<path d="M189.281 378.168C183.731 379.956 176.759 361.152 175.923 358.831C177.038 362.027 177.851 365.351 178.348 368.747C177.755 368.949 177.137 369.036 176.519 369.005C176.25 368.051 175.919 367.121 175.527 366.225C175.361 365.797 175.647 367.239 175.917 369.051C175.579 369.051 175.21 369.072 174.814 369.097C174.309 367.033 173.567 365.057 172.608 363.219C172.688 365.217 172.885 367.207 173.198 369.174C168.08 369.315 162.991 370.105 158.024 371.531C156.638 371.972 155.465 372.424 154.435 372.866C153.774 370.513 153.314 367.92 153.314 368.51C153.299 370.085 153.419 371.658 153.673 373.205C153.117 373.449 152.604 373.686 152.137 373.912C151.073 370.633 150.975 364.815 150.739 365.787C150.059 368.796 149.882 371.925 150.216 375.01C148.372 376.173 147.939 376.819 147.724 376.25C146.499 369.475 147.41 362.42 150.296 356.348C155.096 346.411 168.26 339.529 179.144 348.138C183.69 349.697 187.551 353.181 189.948 357.888C193.076 365.19 192.486 377.13 189.281 378.168Z" fill="#263238"/>
<path d="M186.094 379.359C186.094 379.359 188.596 370.005 192.142 370.789C195.688 371.573 195.301 383.937 192.188 386.76C191.81 387.154 191.367 387.456 190.886 387.648C190.404 387.841 189.893 387.919 189.385 387.878C188.876 387.838 188.38 387.679 187.926 387.412C187.472 387.145 187.069 386.776 186.743 386.325L186.094 379.359Z" fill="#FFC3BD"/>
<path d="M191.954 374.328C192.01 374.3 192.046 374.388 192.003 374.431C191.048 375.504 190.299 376.796 189.806 378.223C189.312 379.65 189.084 381.18 189.136 382.715C189.2 382.376 189.327 382.057 189.509 381.779C189.691 381.502 189.922 381.274 190.188 381.11C190.454 380.945 190.747 380.849 191.049 380.828C191.35 380.807 191.652 380.861 191.933 380.987C192.013 381.016 191.982 381.157 191.908 381.164C191.428 381.167 190.96 381.34 190.568 381.661C190.177 381.981 189.882 382.434 189.723 382.955C189.463 383.829 189.285 384.733 189.192 385.65C189.146 385.947 188.709 385.961 188.709 385.65V385.576C187.615 381.955 188.66 375.95 191.954 374.328Z" fill="#263238"/>
<path d="M211.642 417.08C229.9 443.14 254.839 487.417 244.413 497.746C227.273 514.727 176.393 525.653 164.708 527.607C159.662 528.448 148.729 490.727 152.001 485.714C155.274 480.701 209.211 475.72 209.509 471.898C209.678 469.733 204.9 451.318 199.132 428.402C192.486 401.978 206.418 409.623 211.642 417.08Z" fill="#FFC3BD"/>
<path d="M160.784 482.333C160.784 482.333 145.281 482.63 135.153 483.376C128.543 483.715 122.022 485.265 115.837 487.968C109.808 491.688 86.6456 511.679 90.7539 518.231C94.4597 524.166 112.451 504.101 112.451 504.101C112.451 504.101 92.739 522.513 98.3469 528.716C103.955 534.919 121.654 509.128 121.654 509.128C121.654 509.128 101.77 528.557 108.441 533.913C113.474 537.954 130.651 515.635 130.651 515.635C130.651 515.635 113.662 532.482 118.683 536.891C124.232 541.765 141.213 522.305 141.213 522.305C155.618 531.048 165.586 528.434 172.485 525.607C174.147 524.926 160.784 482.333 160.784 482.333Z" fill="#FFC3BD"/>
<path d="M118.913 497.234C116.529 499.301 114.104 501.374 111.889 503.677C109.673 505.981 107.525 508.376 105.507 510.901C102.811 514.148 100.449 517.739 98.4668 521.605C102.653 515.365 107.338 509.589 112.46 504.352C114.67 502.056 116.781 499.629 118.993 497.326C119.042 497.252 118.972 497.185 118.913 497.234Z" fill="#263238"/>
<path d="M126.291 506.281C123.347 509.072 120.336 511.718 117.497 514.657C114.657 517.596 112.218 520.645 109.575 523.785C109.372 524.029 109.55 524.075 109.766 523.838C112.516 520.818 115.257 518.274 118.034 515.293C120.812 512.311 123.492 509.206 126.353 506.355C126.399 506.31 126.334 506.235 126.291 506.281Z" fill="#263238"/>
<path d="M133.838 512.735C129.232 516.889 125.01 521.577 121.239 526.724C121.046 526.975 121.285 527.003 121.494 526.759C125.603 522.019 128.799 518.281 133.955 512.919C134.041 512.838 133.936 512.65 133.838 512.735Z" fill="#263238"/>
<path d="M172.316 480.062C170.14 480.105 165.577 481.263 160.492 481.648C149.045 482.51 132.836 482.899 127.069 483.415C111.489 484.761 102.274 498.251 97.9935 502.985C95.4338 505.859 93.1263 509.016 91.1043 512.41C90.0534 514.25 89.067 516.861 90.5604 518.829C92.3764 521.224 98.9461 518.444 105.673 511.099C105.915 510.834 105.755 510.679 105.507 510.923C96.0454 520.185 92.1767 519.256 91.1381 517.744C90.4652 516.766 91.0582 515.028 91.6144 513.692C92.5152 511.763 93.6274 509.973 94.9238 508.369C99.2299 502.782 104.02 497.714 109.219 493.242C114.802 488.203 121.515 485.09 128.577 484.266C133.592 483.651 149.036 483.383 160.572 482.404C165.623 481.973 170.159 480.695 172.35 480.391C172.5 480.348 172.482 480.059 172.316 480.062Z" fill="#263238"/>
<path d="M234.955 450.138L202.042 450.865C199.815 441.335 198.021 431.678 196.668 421.934C195.196 407.969 199.363 404.066 210.523 415.575C217.99 423.301 234.955 450.138 234.955 450.138Z" fill="#744FC2"/>
<path d="M206.058 450.788C205.705 450.721 202.322 450.668 202.064 450.746C201.609 448.569 199.372 438.424 199.108 437.375C199.105 437.36 199.1 437.345 199.092 437.333C199.084 437.32 199.075 437.309 199.063 437.301C199.052 437.292 199.039 437.287 199.026 437.284C199.013 437.281 199 437.281 198.986 437.285C198.973 437.288 198.961 437.294 198.95 437.303C198.939 437.312 198.929 437.323 198.922 437.336C198.915 437.349 198.91 437.363 198.907 437.378C198.905 437.393 198.905 437.409 198.908 437.424C199.006 438.039 199.372 440.381 199.799 443.002L199.747 442.9C199.52 442.44 199.261 441.995 199.009 441.55C198.757 441.105 198.545 440.586 198.321 440.105C198.254 439.957 198.051 440.105 198.124 440.243C198.355 440.699 198.61 441.151 198.807 441.631C199.003 442.112 199.166 442.539 199.369 442.981C199.572 443.422 199.778 443.853 199.984 444.291L200.014 444.355C200.503 447.312 201.025 450.315 201.296 451.42C202.885 451.375 204.471 451.217 206.043 450.947C206.126 450.908 206.114 450.799 206.058 450.788Z" fill="#263238"/>
<path d="M231.56 446.623C226.763 446.347 221.976 446.153 217.173 446.203C214.776 446.226 212.381 446.292 209.989 446.4C207.598 446.51 205.21 446.902 202.823 446.969C202.691 446.969 202.706 447.216 202.823 447.206C205.201 446.994 207.629 447.153 210.016 447.089C212.404 447.026 214.807 446.976 217.204 446.944C221.988 446.877 226.775 446.799 231.56 446.859C231.71 446.859 231.686 446.63 231.56 446.623Z" fill="#263238"/>
<path d="M222.667 431.235C222.658 431.226 222.646 431.221 222.634 431.221C222.622 431.221 222.61 431.225 222.6 431.234C222.591 431.243 222.584 431.255 222.582 431.269C222.58 431.283 222.581 431.297 222.587 431.309C223.303 432.952 231.867 446.404 234.599 449.891C233.745 449.94 232.894 450.051 232.051 450.223C233.169 450.337 234.294 450.348 235.413 450.254C235.475 450.226 223.902 432.454 222.667 431.235Z" fill="#263238"/>
<path d="M185.818 300.901C182.687 307.971 177.897 313.891 171.99 317.992C165.693 314.75 160.312 309.542 156.46 302.961C152.395 294.807 154.208 285.563 159.813 283.178C167.851 279.755 170.826 296.009 170.826 296.009C170.826 296.009 172.055 279.462 180.407 281.737C186.217 283.316 188.992 292.243 185.818 300.901Z" fill="#FFC727"/>
<path d="M145.69 272.57C145.92 279.047 144.567 285.47 141.784 291.109C136.173 291.696 130.531 290.464 125.498 287.551C119.765 283.616 117.835 276.194 121 271.916C125.535 265.78 133.313 275.986 133.313 275.986C133.313 275.986 128.427 263.622 135.156 261.41C139.852 259.859 144.937 264.939 145.69 272.57Z" fill="#FFC727"/>
<path d="M197.083 186.905C197.313 193.384 195.96 199.807 193.177 205.447C187.566 206.034 181.924 204.802 176.891 201.89C171.154 197.955 169.228 190.533 172.39 186.255C176.925 180.115 184.702 190.324 184.702 190.324C184.702 190.324 179.82 177.96 186.546 175.746C191.241 174.198 196.327 179.278 197.083 186.905Z" fill="#FFC727"/>
<path d="M175.619 234.326C173.196 238.12 169.896 241.058 166.093 242.804C162.678 240.218 159.962 236.582 158.255 232.309C156.552 227.095 158.378 221.884 161.856 221.103C166.843 219.984 167.233 229.815 167.233 229.815C167.233 229.815 169.326 220.277 174.021 222.517C177.312 224.081 178.194 229.606 175.619 234.326Z" fill="#FFC727"/>
<path d="M152.942 159.517C152.471 162.294 151.333 164.864 149.657 166.935C147.222 166.533 144.935 165.355 143.053 163.533C142.576 163.131 142.179 162.616 141.889 162.023C141.599 161.43 141.423 160.773 141.372 160.095C141.321 159.417 141.397 158.735 141.594 158.093C141.791 157.452 142.106 156.867 142.516 156.376C144.974 154.299 147.383 159.534 147.383 159.534C147.383 159.534 146.394 153.727 149.451 153.564C151.581 153.448 153.289 156.193 152.942 159.517Z" fill="#FFC727"/>
</svg>
