<svg width="112" height="57" viewBox="0 0 112 57" fill="none" xmlns="http://www.w3.org/2000/svg">
<path d="M28.119 50.953C15.6942 50.9424 5.45707 41.2469 4.83503 28.901C4.21298 16.5551 13.4242 5.88966 25.7856 4.64285V14.0214C18.7637 15.202 13.7547 21.4435 14.152 28.5176C14.5492 35.5917 20.2257 41.2393 27.3361 41.6345C34.4465 42.0297 40.72 37.0462 41.9066 30.0602H51.3333C50.1195 41.9147 40.0936 50.937 28.1166 50.953H28.119ZM51.3356 25.4173H41.909C40.916 19.5805 36.3192 15.0082 30.4523 14.0214V4.64285C41.4821 5.76638 50.2028 14.4416 51.3333 25.415L51.3356 25.4173Z" fill="white"/>
<path d="M86.3333 32.4254C86.7708 32.8608 87.3642 33.1054 87.983 33.1056H89.3503C89.9691 33.1054 90.5625 32.8608 91 32.4254L101.983 21.4984L107.333 26.8215V12.8929H93.3333L98.6837 18.2159L88.6667 28.1818L81.6667 21.2175C81.2292 20.7821 80.6358 20.5375 80.017 20.5373H78.6497C78.0309 20.5375 77.4375 20.7821 77 21.2175L61.3503 36.7873L64.6497 40.0698L79.3333 25.4611L86.3333 32.4254Z" fill="white"/>
</svg>
