<svg width="65" height="65" viewBox="0 0 65 65" fill="none" xmlns="http://www.w3.org/2000/svg">
<path d="M32.6381 59.4452C18.2165 59.4328 6.3341 48.1214 5.61208 33.7178C4.89006 19.3142 15.5817 6.87126 29.9298 5.41666V16.3583C21.7793 17.7357 15.9653 25.0174 16.4264 33.2706C16.8874 41.5237 23.4763 48.1125 31.7294 48.5736C39.9825 49.0346 47.2642 43.2206 48.6416 35.0702H59.5833C58.1744 48.9004 46.5372 59.4265 32.6354 59.4452H32.6381ZM59.586 29.6535H48.6443C47.4917 22.844 42.1562 17.5095 35.3464 16.3583V5.41666C48.1489 6.72744 58.2711 16.8485 59.5833 29.6508L59.586 29.6535Z" fill="white"/>
</svg>
